<?xml version="1.0" encoding="utf-8"?>
<!-- Generator: Adobe Illustrator 19.1.0, SVG Export Plug-In . SVG Version: 6.00 Build 0)  -->
<svg version="1.1" id="Layer_1" xmlns="http://www.w3.org/2000/svg" xmlns:xlink="http://www.w3.org/1999/xlink" x="0px" y="0px"
	 viewBox="0 0 1700.5 236.4" style="enable-background:new 0 0 1700.5 236.4;" xml:space="preserve">
<style type="text/css">
	.st0{fill:url(#SVGID_1_);}
	.st1{fill:#FFFFFF;}
	.st2{fill:url(#SVGID_2_);}
	.st3{fill:url(#SVGID_3_);}
	.st4{fill:url(#SVGID_4_);}
</style>
<linearGradient id="SVGID_1_" gradientUnits="userSpaceOnUse" x1="850.2456" y1="-3.286732e-008" x2="850.2456" y2="236.3699">
	<stop  offset="0" style="stop-color:#93AEC9"/>
	<stop  offset="1" style="stop-color:#1B2F3F"/>
</linearGradient>
<path class="st0" d="M296.7,71.9h-29.5V61.3h78.9v10.6h-29.7V122h-19.8V71.9z M374.6,61.1v24.7h35.2V61.1H429V122h-19.1V96.6h-35.2
	V122h-19.1V61.1H374.6z M485.3,71.8c-6.8,0-12,1.2-15.7,3.5c-1.8,1.2-3.3,2.7-4.3,4.4c-1,1.8-1.5,3.9-1.5,6.3l53.1,0.1v10.6h-53.2
	c0,5.3,1.7,9.1,5,11.4c3.3,2.3,8.9,3.5,16.7,3.5h31.6V122h-32.5c-7.3,0-13-0.4-16.9-1.2c-4-0.8-7.8-2.1-11.5-4.1
	c-4.6-2.4-8.1-5.7-10.5-9.7c-2.3-4-3.5-8.7-3.5-14.3c0-10.7,3.5-18.7,10.4-23.9c7-5.1,17.8-7.7,32.5-7.7h32v10.6H485.3z M608.8,122
	l-39.6-60.9h21.7l27.4,45.4l28.1-45.4h20.5L628.8,122H608.8z M709.3,71.8c-6.8,0-12,1.2-15.7,3.5c-1.8,1.2-3.3,2.7-4.3,4.4
	c-1,1.8-1.5,3.9-1.5,6.3l53.1,0.1v10.6h-53.2c0,5.3,1.7,9.1,5,11.4c3.3,2.3,8.9,3.5,16.7,3.5h31.6V122h-32.5c-7.3,0-13-0.4-16.9-1.2
	c-4-0.8-7.8-2.1-11.5-4.1c-4.6-2.4-8.1-5.7-10.5-9.7c-2.3-4-3.5-8.7-3.5-14.3c0-10.7,3.5-18.7,10.4-23.9c7-5.1,17.8-7.7,32.5-7.7h32
	v10.6H709.3z M757.5,61.1h24.3l37.3,43.8l-0.9-43.8h19.6V122h-22.2l-39.3-46l0.9,46h-19.6V61.1z M874.9,61.1v36.5
	c0,5.6,1.6,9.5,4.7,11.8c3.1,2.3,8.4,3.5,15.9,3.5s12.8-1.1,16-3.4c3.1-2.2,4.6-6.1,4.6-11.9V61.1h19.1v36.8c0,4-0.4,7.4-1.2,10.1
	c-0.9,2.8-2.3,4.8-4.2,6.2c-3.5,2.9-8,5-13.6,6.4s-12.5,2.1-20.7,2.1c-8.1,0-14.9-0.7-20.4-2c-5.6-1.3-10.3-3.5-14.1-6.4
	c-1.7-1.5-2.9-3.5-3.7-6c-0.9-2.5-1.3-5.9-1.3-10.4V61.1H874.9z M1030.8,72.1h-47.4c-5.2,0-9,0.6-11.3,1.8c-2.3,1.3-3.5,3.3-3.5,6.1
	c0,2.1,1,3.8,3,4.9c2.2,1.1,5.2,1.6,9.1,1.6h25.4c10.6,0,18.1,1.3,22.5,4c4.4,2.7,6.6,7.2,6.6,13.3c0,6.2-2.5,10.8-7.6,13.7
	c-5.2,3-13.2,4.4-24.2,4.4h-51.1v-10.8h48.1c5.5,0,9.4-0.5,11.6-1.6c2.2-1,3.3-2.8,3.3-5.3c0-2.4-1-4.2-3.1-5.4
	c-2.1-1-5.6-1.6-10.5-1.6H979c-10.5,0-18.2-1.4-23-4.2c-4.9-2.8-7.4-7.3-7.4-13.3c0-6.4,2.6-11.1,7.8-14.2c5.1-3,13.2-4.5,24.2-4.5
	h50.2V72.1z M1098.6,61.1h41.6c7,0,12.6,0.3,16.9,0.8c4.3,0.5,7.6,1.3,9.8,2.4c4.1,1.7,7.2,4,9.4,6.8c2.1,2.8,3.1,6.2,3.1,10
	c0,3.7-0.8,6.8-2.5,9.3c-1.9,2.7-4.5,4.9-7.9,6.5c-1.7,0.7-3.2,1.3-4.7,1.8c-1.5,0.5-3.4,0.8-5.6,1.2c-4.2,0.6-10.1,0.9-17.6,0.9
	h-23.3V122h-19.1V61.1z M1140,72.1h-22.2v17.9h23.5c5.9,0,10.3-0.7,13-2.2c2.7-1.5,4-3.7,4-6.7c0-3.2-1.4-5.5-4.2-6.9
	C1151.4,72.8,1146.7,72.1,1140,72.1z M1192.9,61.1h47.2c11,0,19.1,1.5,24.2,4.4c5.1,3,7.6,7.7,7.6,13.9c0,4.6-1.6,8.3-4.7,11.3
	c-3.1,3-7.7,5-13.7,5.8l22.8,25.4h-21.6l-20-23.9H1212V122h-19.1V61.1z M1235.6,72.1H1212v15.3h23.6c6.3,0,10.7-0.6,13.2-1.9
	c2.5-1.1,3.8-3.1,3.8-5.9c0-2.7-1.2-4.7-3.7-5.9C1246.4,72.6,1242,72.1,1235.6,72.1z M1282.3,91c0-10.4,3.8-18.2,11.3-23.4
	c7.4-5.1,18.8-7.6,34.3-7.6c15.5,0,26.9,2.6,34.3,7.8c7.4,5.2,11.1,13.1,11.1,23.8c0,10.7-3.7,18.7-11.1,23.9
	c-7.5,5.2-18.9,7.9-34.3,7.9c-15.7,0-27.2-2.6-34.5-7.9C1286,110.3,1282.3,102.1,1282.3,91z M1327.9,70.4c-8.2,0-14.3,1.7-18.5,5.2
	c-4.1,3.5-6.1,8.6-6.1,15.5c0,7.4,2,12.9,5.9,16.4c4,3.5,10.2,5.3,18.7,5.3c8.4,0,14.6-1.8,18.6-5.3c4-3.5,6-8.8,6-15.9
	c0-7.1-2-12.5-6-16C1342.5,72.1,1336.3,70.4,1327.9,70.4z M1376.4,111.9h22.5c8.1,0,13.7-1.2,16.6-3.5c2.9-2.3,4.3-6.9,4.3-13.9
	V61.1h19.9v36.2c0,2.4-0.1,4.4-0.4,6.1c-0.3,1.7-0.8,3.3-1.5,4.8c-1.3,2.8-3.5,5.2-6.5,7.4c-2.9,2.3-6.6,3.9-10.9,4.9
	c-4.4,0.9-10.8,1.4-19,1.4h-25.1V111.9z M1494.9,71.8c-6.8,0-12,1.2-15.7,3.5c-1.8,1.2-3.3,2.7-4.3,4.4c-1,1.8-1.5,3.9-1.5,6.3
	l53.1,0.1v10.6h-53.2c0,5.3,1.7,9.1,5,11.4c3.3,2.3,8.9,3.5,16.7,3.5h31.6V122H1494c-7.3,0-13-0.4-16.9-1.2c-4-0.8-7.8-2.1-11.5-4.1
	c-4.6-2.4-8.1-5.7-10.5-9.7c-2.3-4-3.5-8.7-3.5-14.3c0-10.7,3.5-18.7,10.4-23.9c7-5.1,17.8-7.7,32.5-7.7h32v10.6H1494.9z
	 M1580.7,71.6c-7.9,0-13.6,1.7-17.1,5c-3.5,3.3-5.2,8.9-5.2,16.6c0,6.6,1.7,11.3,5,14c3.3,2.7,9.1,4.1,17.4,4.1h31.6V122h-32.5
	c-7.3,0-13-0.4-16.9-1.2c-4-0.8-7.8-2.1-11.5-4.1c-4.6-2.4-8.2-5.7-10.5-9.7c-2.3-4-3.5-8.7-3.5-14.3c0-10.7,3.5-18.7,10.5-23.9
	c7-5.1,17.8-7.7,32.5-7.7h32v10.5H1580.7z M1646.2,71.9h-29.5V61.3h78.9v10.6h-29.7V122h-19.8V71.9z M289.1,187.9h-21.7V161h20.3
	c2.4,0,4.5,0.1,6.2,0.3c1.7,0.2,3,0.5,3.9,1c1.4,0.6,2.6,1.4,3.4,2.4c0.8,1,1.1,2.1,1.1,3.4c0,1.5-0.5,2.8-1.4,3.8
	c-1,1-2.5,1.9-4.5,2.6c2.1,0.6,3.6,1.4,4.6,2.4c0.9,1,1.4,2.2,1.4,3.8c0,2.5-1.1,4.4-3.2,5.5C296.9,187.3,293.6,187.9,289.1,187.9z
	 M275.6,165.9v6.2h12.2c2,0,3.3-0.2,4.1-0.7c0.9-0.5,1.3-1.3,1.3-2.4c0-1-0.5-1.8-1.4-2.4c-0.9-0.5-2.3-0.7-4.1-0.7H275.6z
	 M288,183.1c1.9,0,3.3-0.2,4.1-0.7c0.8-0.5,1.2-1.3,1.2-2.4c0-1.1-0.4-1.9-1.3-2.4c-0.9-0.5-2.3-0.8-4.1-0.8h-12.3v6.3H288z
	 M335.3,165.7c-2.9,0-5.2,0.5-6.8,1.5c-0.8,0.5-1.4,1.2-1.9,1.9c-0.4,0.8-0.7,1.7-0.7,2.8l23,0v4.7h-23.1c0,2.3,0.7,4,2.2,5
	c1.5,1,3.9,1.5,7.2,1.5H349v4.7h-14.1c-3.2,0-5.6-0.2-7.3-0.5c-1.7-0.3-3.4-0.9-5-1.8c-2-1.1-3.5-2.5-4.5-4.3
	c-1-1.8-1.5-3.9-1.5-6.3c0-4.7,1.5-8.2,4.5-10.6c3-2.3,7.7-3.4,14.1-3.4H349v4.7H335.3z M361.8,161h9.4l9.8,10.3l9.9-10.3h9.7
	l-15.3,15v11.9h-8.3V176L361.8,161z M408.8,174.2c0-4.6,1.6-8.1,4.9-10.3c3.2-2.3,8.2-3.4,14.9-3.4c6.7,0,11.7,1.2,14.9,3.5
	c3.2,2.3,4.8,5.8,4.8,10.5c0,4.7-1.6,8.3-4.8,10.6c-3.3,2.3-8.2,3.5-14.9,3.5c-6.8,0-11.8-1.2-15-3.5
	C410.4,182.7,408.8,179.1,408.8,174.2z M428.6,165.1c-3.5,0-6.2,0.8-8,2.3c-1.8,1.5-2.7,3.8-2.7,6.8c0,3.3,0.9,5.7,2.6,7.3
	c1.7,1.6,4.4,2.3,8.1,2.3c3.6,0,6.3-0.8,8.1-2.3c1.7-1.5,2.6-3.9,2.6-7c0-3.2-0.9-5.5-2.6-7.1C434.9,165.8,432.2,165.1,428.6,165.1z
	 M464.1,161h10.5l16.2,19.3l-0.4-19.3h8.5v26.9h-9.7l-17.1-20.4l0.4,20.4h-8.5V161z M516.8,161h18.1c6.3,0,11,1.1,14.1,3.4
	c3,2.3,4.5,5.8,4.5,10.6c0,2.5-0.5,4.6-1.5,6.3c-0.5,0.9-1.2,1.7-1.9,2.4c-0.7,0.7-1.6,1.3-2.7,1.9c-1.6,0.8-3.3,1.4-5,1.8
	c-1.8,0.4-4.3,0.5-7.3,0.5h-18.3V161z M534.7,165.7h-9.7v17.5h9.7c3.7,0,6.2-0.6,7.6-1.9c1.4-1.3,2.1-3.5,2.1-6.9
	c0-3.3-0.7-5.5-2.1-6.9C541,166.3,538.5,165.7,534.7,165.7z M603.3,161h18.1c3,0,5.5,0.1,7.3,0.3c1.9,0.2,3.3,0.6,4.3,1
	c1.8,0.8,3.1,1.8,4.1,3c0.9,1.3,1.4,2.7,1.4,4.4c0,1.6-0.4,3-1.1,4.1c-0.8,1.2-2,2.2-3.4,2.9c-0.7,0.3-1.4,0.6-2.1,0.8
	c-0.6,0.2-1.5,0.4-2.4,0.5c-1.8,0.3-4.4,0.4-7.7,0.4h-10.1v9.4h-8.3V161z M621.2,165.8h-9.7v7.9h10.2c2.6,0,4.5-0.3,5.7-1
	c1.2-0.6,1.7-1.6,1.7-3c0-1.4-0.6-2.4-1.8-3.1C626.2,166.1,624.1,165.8,621.2,165.8z M652.1,174.2c0-4.6,1.6-8.1,4.9-10.3
	c3.2-2.3,8.2-3.4,14.9-3.4c6.7,0,11.7,1.2,14.9,3.5c3.2,2.3,4.8,5.8,4.8,10.5c0,4.7-1.6,8.3-4.8,10.6c-3.3,2.3-8.2,3.5-14.9,3.5
	c-6.8,0-11.8-1.2-15-3.5C653.7,182.7,652.1,179.1,652.1,174.2z M671.9,165.1c-3.5,0-6.2,0.8-8,2.3c-1.8,1.5-2.7,3.8-2.7,6.8
	c0,3.3,0.8,5.7,2.6,7.3c1.7,1.6,4.4,2.3,8.1,2.3c3.6,0,6.3-0.8,8.1-2.3c1.7-1.5,2.6-3.9,2.6-7c0-3.2-0.9-5.5-2.6-7.1
	C678.2,165.8,675.5,165.1,671.9,165.1z M723.4,187.9c-3.7,0-6.5-0.2-8.2-0.7c-1.8-0.4-3.3-1.1-4.7-2.1c-1.4-1-2.3-2-2.9-3.2
	c-0.6-1.2-0.8-2.8-0.8-4.9v-16h8.3v15.8c0,0.8,0,1.4,0.1,2c0.1,0.6,0.1,1,0.2,1.3c0.3,0.7,0.6,1.2,1.1,1.5c0.7,0.6,1.7,1,2.9,1.4
	c1.2,0.3,2.8,0.4,4.8,0.4h9.8v4.5H723.4z M757.1,187.9h-8.7V161h8.7V187.9z M784.1,165.7h-12.8V161h34.2v4.7h-12.9v22.2h-8.6V165.7z
	 M828.5,187.9h-8.7V161h8.7V187.9z M863.2,165.6c-3.4,0-5.9,0.7-7.4,2.2c-1.5,1.5-2.3,3.9-2.3,7.3c0,2.9,0.7,5,2.2,6.2
	s4,1.8,7.5,1.8h13.7v4.7h-14.1c-3.2,0-5.6-0.2-7.3-0.5c-1.7-0.3-3.4-0.9-5-1.8c-2-1.1-3.5-2.5-4.6-4.3c-1-1.8-1.5-3.9-1.5-6.3
	c0-4.7,1.5-8.2,4.5-10.6c3-2.3,7.7-3.4,14.1-3.4h13.9v4.6H863.2z M926.4,165.8h-20.5c-2.3,0-3.9,0.3-4.9,0.8c-1,0.6-1.5,1.5-1.5,2.7
	c0,0.9,0.4,1.7,1.3,2.2c0.9,0.5,2.3,0.7,3.9,0.7h11c4.6,0,7.8,0.6,9.8,1.8c1.9,1.2,2.9,3.2,2.9,5.9c0,2.8-1.1,4.8-3.3,6.1
	c-2.2,1.3-5.7,2-10.5,2h-22.2v-4.8h20.9c2.4,0,4.1-0.2,5-0.7c0.9-0.5,1.4-1.2,1.4-2.3c0-1.1-0.5-1.9-1.4-2.4
	c-0.9-0.5-2.4-0.7-4.5-0.7h-9.8c-4.5,0-7.9-0.6-10-1.9c-2.1-1.3-3.2-3.2-3.2-5.9c0-2.8,1.1-4.9,3.4-6.3c2.2-1.3,5.7-2,10.5-2h21.8
	V165.8z M978.5,161h18.1c3,0,5.5,0.1,7.3,0.3c1.9,0.2,3.3,0.6,4.3,1c1.8,0.8,3.1,1.8,4.1,3c0.9,1.3,1.4,2.7,1.4,4.4
	c0,1.6-0.4,3-1.1,4.1c-0.8,1.2-2,2.2-3.4,2.9c-0.7,0.3-1.4,0.6-2.1,0.8c-0.6,0.2-1.5,0.4-2.4,0.5c-1.8,0.3-4.4,0.4-7.7,0.4h-10.1
	v9.4h-8.3V161z M996.5,165.8h-9.7v7.9H997c2.6,0,4.5-0.3,5.7-1c1.2-0.6,1.7-1.6,1.7-3c0-1.4-0.6-2.4-1.8-3.1
	C1001.4,166.1,999.4,165.8,996.5,165.8z M1027.3,174.2c0-4.6,1.6-8.1,4.9-10.3c3.2-2.3,8.2-3.4,14.9-3.4c6.7,0,11.7,1.2,14.9,3.5
	c3.2,2.3,4.8,5.8,4.8,10.5c0,4.7-1.6,8.3-4.8,10.6c-3.3,2.3-8.2,3.5-14.9,3.5c-6.8,0-11.8-1.2-15-3.5
	C1028.9,182.7,1027.3,179.1,1027.3,174.2z M1047.1,165.1c-3.5,0-6.2,0.8-8,2.3c-1.8,1.5-2.7,3.8-2.7,6.8c0,3.3,0.8,5.7,2.6,7.3
	c1.7,1.6,4.4,2.3,8.1,2.3c3.6,0,6.3-0.8,8.1-2.3c1.7-1.5,2.6-3.9,2.6-7c0-3.2-0.9-5.5-2.6-7.1
	C1053.5,165.8,1050.8,165.1,1047.1,165.1z M1093.5,187.9l-17.2-26.9h9.4l11.9,20.1l12.2-20.1h8.9l-16.5,26.9H1093.5z M1146.8,165.7
	c-2.9,0-5.2,0.5-6.8,1.5c-0.8,0.5-1.4,1.2-1.9,1.9c-0.4,0.8-0.7,1.7-0.7,2.8l23,0v4.7h-23.1c0,2.3,0.7,4,2.2,5
	c1.5,1,3.9,1.5,7.2,1.5h13.7v4.7h-14.1c-3.2,0-5.6-0.2-7.3-0.5c-1.7-0.3-3.4-0.9-5-1.8c-2-1.1-3.5-2.5-4.5-4.3
	c-1-1.8-1.5-3.9-1.5-6.3c0-4.7,1.5-8.2,4.5-10.6c3-2.3,7.7-3.4,14.1-3.4h13.9v4.7H1146.8z M1177.7,161h20.5c4.8,0,8.3,0.6,10.5,1.9
	c2.2,1.3,3.3,3.4,3.3,6.2c0,2-0.7,3.7-2.1,5c-1.3,1.3-3.3,2.2-6,2.6l9.9,11.2h-9.4l-8.7-10.6h-9.8v10.6h-8.3V161z M1196.2,165.8
	H1186v6.8h10.2c2.7,0,4.6-0.3,5.7-0.8c1.1-0.5,1.6-1.4,1.6-2.6c0-1.2-0.5-2.1-1.6-2.6C1200.9,166.1,1199,165.8,1196.2,165.8z
	 M1238.3,165.7h-12.8V161h34.2v4.7h-12.9v22.2h-8.6V165.7z M1271,161h9.4l9.8,10.3l9.9-10.3h9.7l-15.3,15v11.9h-8.3V176L1271,161z
	 M1366.9,161h8.9l16.9,26.9h-9.3l-3.6-6.4h-17.2l-3.5,6.4h-8.8L1366.9,161z M1371,166.4l-5.7,10.3h11.8L1371,166.4z M1406.3,161
	h10.5l16.2,19.3l-0.4-19.3h8.5v26.9h-9.7l-17.1-20.4l0.4,20.4h-8.5V161z M1458.9,161h18.1c6.3,0,11,1.1,14.1,3.4
	c3,2.3,4.5,5.8,4.5,10.6c0,2.5-0.5,4.6-1.5,6.3c-0.5,0.9-1.2,1.7-1.9,2.4c-0.7,0.7-1.6,1.3-2.7,1.9c-1.6,0.8-3.3,1.4-5,1.8
	c-1.8,0.4-4.3,0.5-7.3,0.5h-18.3V161z M1476.9,165.7h-9.7v17.5h9.7c3.7,0,6.2-0.6,7.6-1.9s2.1-3.5,2.1-6.9c0-3.3-0.7-5.5-2.1-6.9
	C1483.1,166.3,1480.6,165.7,1476.9,165.7z M1540.9,161h8.9l9.2,20.7l7.7-20.7h9.8l8.8,20.7l8.5-20.7h8.6l-12.3,26.9h-10.2l-8.5-20.1
	l-7.4,20.1h-10.1L1540.9,161z M1625,161h8.9l16.9,26.9h-9.3l-3.6-6.4h-17.2l-3.5,6.4h-8.8L1625,161z M1629.1,166.4l-5.7,10.3h11.8
	L1629.1,166.4z M1664.3,161h20.5c4.8,0,8.3,0.6,10.5,1.9c2.2,1.3,3.3,3.4,3.3,6.2c0,2-0.7,3.7-2.1,5c-1.3,1.3-3.3,2.2-6,2.6
	l9.9,11.2h-9.4l-8.7-10.6h-9.8v10.6h-8.3V161z M1682.8,165.8h-10.2v6.8h10.2c2.7,0,4.6-0.3,5.7-0.8c1.1-0.5,1.6-1.4,1.6-2.6
	c0-1.2-0.5-2.1-1.6-2.6C1687.5,166.1,1685.6,165.8,1682.8,165.8z M116.7,179.9l55.6-98.6h-24.9l-30.8,54.6L85.8,81.3H61L116.7,179.9
	z M182.6,19.1l-11.2,19.7c25.5,17.2,42.3,46.3,42.3,79.4c0,52.8-42.8,95.6-95.6,95.6c-14.5,0-28.3-3.2-40.6-9l-11.2,19.7
	c15.6,7.6,33.2,11.9,51.7,11.9c65.3,0,118.2-52.9,118.2-118.2C236.4,76.7,215,40.1,182.6,19.1z M22.6,118.2
	c0-52.8,42.8-95.6,95.6-95.6c12.9,0,25.1,2.5,36.3,7.2L165.7,10c-14.5-6.4-30.6-10-47.5-10C52.9,0,0,52.9,0,118.2
	c0,39.9,19.7,75.1,50,96.5l11.2-19.8C37.8,177.5,22.6,149.6,22.6,118.2z"/>
</svg>
